<?xml version="1.0" encoding="UTF-8"?><svg enable-background="new 0 0 64 64" version="1.1" viewBox="0 0 64 64" xml:space="preserve" xmlns="http://www.w3.org/2000/svg"><style type="text/css">
	.st0{fill:#F8951D}</style><path class="st0" d="m32 48c8.8 0 16-7.2 16-16s-7.2-16-16-16-16 7.2-16 16 7.2 16 16 16zm0-28c6.6 0 12 5.4 12 12s-5.4 12-12 12-12-5.4-12-12 5.4-12 12-12z"/><path class="st0" d="m32 12c1.1 0 2-0.9 2-2v-8c0-1.1-0.9-2-2-2s-2 0.9-2 2v8c0 1.1 0.9 2 2 2z"/><path class="st0" d="m34 62v-8c0-1.1-0.9-2-2-2s-2 0.9-2 2v8c0 1.1 0.9 2 2 2s2-0.9 2-2z"/><path class="st0" d="m62 30h-8c-1.1 0-2 0.9-2 2s0.9 2 2 2h8c1.1 0 2-0.9 2-2s-0.9-2-2-2z"/><path class="st0" d="m2 34h8c1.1 0 2-0.9 2-2s-0.9-2-2-2h-8c-1.1 0-2 0.9-2 2s0.9 2 2 2z"/>
<path class="st0" d="m15 17.9c0.4 0.4 0.9 0.6 1.4 0.6s1-0.2 1.4-0.6c0.8-0.8 0.8-2 0-2.8l-5.7-5.7c-0.8-0.8-2-0.8-2.8 0s-0.8 2 0 2.8l5.7 5.7z"/><path class="st0" d="m49 46.1c-0.8-0.8-2-0.8-2.8 0s-0.8 2 0 2.8l5.7 5.7c0.4 0.4 0.9 0.6 1.4 0.6s1-0.2 1.4-0.6c0.8-0.8 0.8-2 0-2.8l-5.7-5.7z"/><path class="st0" d="m47.6 18.4c0.5 0 1-0.2 1.4-0.6l5.7-5.7c0.8-0.8 0.8-2 0-2.8s-2-0.8-2.8 0l-5.8 5.7c-0.8 0.8-0.8 2 0 2.8 0.4 0.4 0.9 0.6 1.5 0.6z"/><path class="st0" d="m15 46.1-5.7 5.7c-0.8 0.8-0.8 2 0 2.8 0.4 0.4 0.9 0.6 1.4 0.6s1-0.2 1.4-0.6l5.7-5.7c0.8-0.8 0.8-2 0-2.8-0.7-0.7-2-0.7-2.8 0z"/></svg>