<?xml version="1.0" encoding="utf-8"?><svg version="1.1" id="Layer_1" xmlns="http://www.w3.org/2000/svg" xmlns:xlink="http://www.w3.org/1999/xlink" x="0px" y="0px"	 viewBox="0 0 64 64" style="enable-background:new 0 0 64 64;" xml:space="preserve"><style type="text/css">	.st0{fill:#F8951D;}	.st1{fill:#5D6C6E;}	.st2{fill:#0D99AD;}</style><path id="XMLID_14_" class="st0" d="M23,0c-1.1,0-2,0.9-2,2v4c0,1.1,0.9,2,2,2s2-0.9,2-2V2C25,0.9,24.1,0,23,0z"/><path id="XMLID_13_" class="st0" d="M3,24h4c1.1,0,2-0.9,2-2s-0.9-2-2-2H3c-1.1,0-2,0.9-2,2S1.9,24,3,24z"/><path id="XMLID_12_" class="st0" d="M13.1,12.1c0.8-0.8,0.8-2,0-2.8L10.9,7c-0.8-0.8-2-0.8-2.8,0s-0.8,2,0,2.8l2.3,2.3	c0.4,0.4,0.9,0.6,1.4,0.6C12.2,12.7,12.7,12.5,13.1,12.1z"/><path id="XMLID_11_" class="st0" d="M32.9,12.1c0.4,0.4,0.9,0.6,1.4,0.6s1-0.2,1.4-0.6L38,9.9c0.8-0.8,0.8-2,0-2.8s-2-0.8-2.8,0	l-2.3,2.3C32.1,10.1,32.1,11.3,32.9,12.1z"/><path id="XMLID_10_" class="st0" d="M10.3,31.9L8,34.2c-0.8,0.8-0.8,2,0,2.8c0.4,0.4,0.9,0.6,1.4,0.6s1-0.2,1.4-0.6l2.3-2.3	c0.8-0.8,0.8-2,0-2.8S11.1,31.1,10.3,31.9z"/><path id="XMLID_6_" class="st1" d="M52.3,22.1c-2.5-5-7.6-8.1-13.3-8.1c-2.2,0-4.2,0.5-6.1,1.3C30.7,12,27,10,23,10	c-6.6,0-12,5.4-12,12c0,3.9,1.9,7.5,5,9.7c-0.6,1.3-1,2.7-1,4.3c0,5.5,4.5,10,10,10h26c6.6,0,12-5.4,12-12	C63,27.8,58.3,22.7,52.3,22.1z M15,22c0-4.4,3.6-8,8-8c2.6,0,5,1.3,6.5,3.4c-2.6,2.1-4.5,5.2-5.2,8.6c-2.3,0.2-4.3,1.1-6,2.5	C16.3,27,15,24.6,15,22z M51,42H25c-3.3,0-6-2.7-6-6s2.7-6,6-6c0.2,0,0.4,0,0.6,0.1l2.3,0.3l0.1-2.1C28.5,22.5,33.3,18,39,18	c4.5,0,8.4,2.7,10.2,6.8l0.5,1.2H51c4.4,0,8,3.6,8,8S55.4,42,51,42z"/><path id="XMLID_5_" class="st2" d="M53,62V50c0-1.1-0.9-2-2-2s-2,0.9-2,2v12c0,1.1,0.9,2,2,2S53,63.1,53,62z"/><path id="XMLID_4_" class="st2" d="M45,56v-6c0-1.1-0.9-2-2-2s-2,0.9-2,2v6c0,1.1,0.9,2,2,2S45,57.1,45,56z"/><path id="XMLID_3_" class="st2" d="M35,64c1.1,0,2-0.9,2-2V50c0-1.1-0.9-2-2-2s-2,0.9-2,2v12C33,63.1,33.9,64,35,64z"/><path id="XMLID_2_" class="st2" d="M29,56v-6c0-1.1-0.9-2-2-2s-2,0.9-2,2v6c0,1.1,0.9,2,2,2S29,57.1,29,56z"/></svg>