<?xml version="1.0" encoding="utf-8"?>
<!-- Generator: Adobe Illustrator 19.0.0, SVG Export Plug-In . SVG Version: 6.00 Build 0)  -->
<svg version="1.1" id="Layer_1" xmlns="http://www.w3.org/2000/svg" xmlns:xlink="http://www.w3.org/1999/xlink" x="0px" y="0px"
	 viewBox="0 0 64 64" style="enable-background:new 0 0 64 64;" xml:space="preserve">
<style type="text/css">
	.st0{fill:#687778;}
	.st1{fill:#5D6B6D;}
</style>
<path id="XMLID_5_" class="st0" d="M53.4,16.9c-2.4-4.6-7.3-7.5-12.5-7.5c-6,0-11.3,3.8-13.3,9.2l2.2,1.7h0.4c1.5-4.6,5.8-8,10.7-8
	c4.4,0,8.4,2.6,10.2,6.7l0.4,0.9l1.2-0.1c0.1,0,0.1,0,0.1,0c4.6,0,8.2,3.7,8.2,8.2c-0.1,3.7-2.5,6.8-5.8,7.9l0.6,1.2l0.3,1.6
	c4.5-1.4,7.8-5.7,7.8-10.7C64.1,22.2,59.4,17.2,53.4,16.9z"/>
<path id="XMLID_2_" class="st1" d="M45.6,27.3c-2.9-5.6-8.9-9.2-15.3-9.2c-7.9,0-14.8,5.4-16.8,12.9c-0.5-0.1-1-0.1-1.6-0.1
	C5.3,30.9,0,36.1,0,42.8s5.3,11.9,11.9,11.9h33c7.6,0,13.7-6.1,13.7-13.7C58.7,33.7,52.9,27.6,45.6,27.3z M45.1,51.1h-33
	c-4.6,0-8.2-3.7-8.2-8.2c0-4.6,3.7-8.2,8.2-8.2c0.8,0,1.6,0.1,2.4,0.4l2,0.6l0.3-2.1c1.1-6.7,6.9-11.7,13.6-11.7
	c5.4,0,10.3,3.2,12.5,8.1l0.5,1.1l1.5-0.1c0.1,0,0.1,0,0.2,0c5.6,0,10.1,4.5,10.1,10.1C55,46.6,50.6,51.1,45.1,51.1z"/>
</svg>
