<?xml version="1.0" encoding="utf-8"?>
<!-- Generator: Adobe Illustrator 19.0.0, SVG Export Plug-In . SVG Version: 6.00 Build 0)  -->
<svg version="1.1" id="Layer_1" xmlns="http://www.w3.org/2000/svg" xmlns:xlink="http://www.w3.org/1999/xlink" x="0px" y="0px"
	 viewBox="0 0 64 64" style="enable-background:new 0 0 64 64;" xml:space="preserve">
<style type="text/css">
	.st0{fill:#5D6B6D;}
</style>
<path id="XMLID_2_" class="st0" d="M8.8,37.3C7.1,39.4,6,42.1,6,45c0,6.6,5.4,12,12,12h32.1C57.8,57,64,50.7,64,43
	s-6.2-13.9-13.9-14c-3-6.1-9.2-10-16.1-10c-0.8,0-1.7,0.1-2.5,0.2C29.8,12.1,23.5,7,16,7c-0.2,0-0.5,0-0.7,0l-3.1,0.2l1.1,2.6
	c0.4,1,0.7,2.1,0.7,3.2c0,4.4-3.6,8-8,8c-1.1,0-2.2-0.2-3.2-0.7l-2.6-1.1L0,22.3c0,0.2,0,0.5,0,0.7C0,29.2,3.5,34.6,8.8,37.3z
	 M34,23c5.7,0,10.8,3.5,13,8.8l0.6,1.4L49,33c0.3,0,0.6,0,1,0c5.5,0,10,4.5,10,10s-4.5,10-9.9,10H18c-4.4,0-8-3.6-8-8s3.5-7.9,7.9-8
	l2,0.1l0.2-1.8C21,28.3,27,23,34,23z M6,25c6.6,0,12-5.4,12-12c0-0.6,0-1.2-0.1-1.9c4.8,0.7,8.7,4.3,9.8,9
	C22.1,22.2,17.8,27,16.5,33c-1.5,0.2-2.9,0.7-4.1,1.3c-4.4-1.3-7.6-5-8.3-9.4C4.8,25,5.4,25,6,25z"/>
</svg>
